# xmcd
#
# Track frame offsets: 
#        150
#        4437
#        26045
#        51752
#        85387
#        108625
#        126552
#        143920
#        161420
#
# Disc length: 2441 seconds
#
# Revision: 1
# Processed by: cddbd v1.4PL0 Copyright (c) Steve Scherf et al.
# Submitted via: ExactAudioCopy v0.95a2
#
DISCID=7e098709
DTITLE=Lalo - Lalo
DYEAR=2002
DGENRE=Jazz
TTITLE0=LFG Walks In
TTITLE1=Little Friendly Giant
TTITLE2=Traveling
TTITLE3=Dance: Lucy's Story
TTITLE4=Revolving Door
TTITLE5=Clockmaker
TTITLE6=Dance: Majesty
TTITLE7=Chameleon
TTITLE8=Dance
EXTD=YEAR: 2002
EXTT0=
EXTT1=
EXTT2=
EXTT3=
EXTT4=
EXTT5=
EXTT6=
EXTT7=
EXTT8=
PLAYORDER=
